<svg id="Layer_1" data-name="Layer 1" xmlns="http://www.w3.org/2000/svg" viewBox="0 0 512 512"><defs><style>.cls-1{fill:#fff;}.cls-2{fill:#bdc3c7;}.cls-3{fill:#414f6b;}.cls-4{fill:#ecf0f1;}</style></defs><path class="cls-1" d="M512,256a256.36,256.36,0,0,1-6.58,57.9c-94.29,50.64-116.81,47.64-238.28,47.64-78.52,0-159.92,115.11-206.88,59.46A255,255,0,0,1,0,256C0,114.61,114.61,0,256,0S512,114.61,512,256Z"/><path class="cls-2" d="M256,512c121.47,0,223.18-84.6,249.42-198.1L457.35,245,412,274,328,156,186,338l-50-20L60.27,421A255.44,255.44,0,0,0,256,512Z"/><polygon class="cls-3" points="328 156 334.1 318 412 274 328 156"/><polygon class="cls-4" points="89.62 421.57 136 433.57 181.11 489.07 263.61 417.07 230.61 340.57 328 156 186 338 136 318 86 386 89.62 421.57"/><polygon class="cls-3" points="136 318 136 357 157.11 348.07 146.56 393.07 201.6 318 136 318"/><polygon class="cls-3" points="310.11 414.07 349.1 355.54 418.1 334 451.1 401.79 412 374.04 334.1 456.07 310.11 414.07"/><polygon class="cls-3" points="293.61 262.58 256 339.07 282.85 382.57 293.61 262.58"/><polygon class="cls-4" points="431.6 288.08 451.1 346.57 475.1 322.57 431.6 288.08"/><polygon class="cls-2" points="181.11 418.57 207 382.57 194.06 427.57 181.11 418.57"/></svg>